<svg width="18" height="19" viewBox="0 0 18 19" fill="none" xmlns="http://www.w3.org/2000/svg">
<path fill-rule="evenodd" clip-rule="evenodd" d="M14.1583 2.33289C14.6353 1.89822 15.3649 1.89823 15.842 2.33291C15.8647 2.35362 15.8944 2.38351 15.9982 2.48975C16.0978 2.59166 16.1257 2.62063 16.1453 2.64316C16.5563 3.11406 16.5563 3.81617 16.1453 4.28707C16.1257 4.3096 16.0978 4.33857 15.9982 4.44048L15.1571 5.30114C14.0575 5.32771 13.1526 4.40233 13.2163 3.29374L14.0021 2.48972C14.1059 2.38349 14.1355 2.3536 14.1583 2.33289ZM11.9536 2.43964L2.99393 11.6076L2.92211 11.6811C2.23016 12.3888 1.78328 12.8459 1.47289 13.4051C1.1625 13.9642 1.01091 14.5852 0.776175 15.5468L0.751801 15.6466L0.271446 17.6127C0.208916 17.8686 0.285262 18.1386 0.472563 18.3239C0.659863 18.5092 0.930648 18.5826 1.18589 18.5173L3.01397 18.0497L3.11592 18.0236C4.09748 17.7727 4.73142 17.6107 5.29801 17.2835C5.86458 16.9563 6.32181 16.4883 7.02976 15.7636L7.02977 15.7636L7.10332 15.6883L17.0709 5.48887L17.0855 5.47403C17.1638 5.39394 17.2241 5.3322 17.2754 5.27344C18.1796 4.23746 18.1796 2.69282 17.2754 1.65682C17.2242 1.59807 17.1638 1.53635 17.0856 1.45628L17.0855 1.45625L17.071 1.44137L17.0557 1.42577L17.0557 1.4257C16.9742 1.34234 16.9116 1.2782 16.8522 1.22413C15.8027 0.267839 14.1976 0.267817 13.148 1.22408C13.0887 1.27817 13.026 1.34233 12.9445 1.42573L12.9293 1.44132L11.9729 2.41993C11.9664 2.42638 11.9599 2.43295 11.9536 2.43964ZM11.933 4.60689C12.2781 5.5124 13.0014 6.23563 13.9062 6.58112L6.03054 14.6399C5.22384 15.4654 4.91433 15.7729 4.54792 15.9845C4.1815 16.1961 3.76039 16.3104 2.64222 16.5965L2.0253 16.7543L2.20894 16.0026C2.47653 14.9074 2.58363 14.4947 2.78437 14.1331C2.98511 13.7715 3.27868 13.4624 4.06671 12.656L11.933 4.60689Z" fill="#0D4477"/>
</svg>
